<?xml version="1.0" standalone="no"?>
<!DOCTYPE svg PUBLIC "-//W3C//DTD SVG 20010904//EN"
 "http://www.w3.org/TR/2001/REC-SVG-20010904/DTD/svg10.dtd">
<svg version="1.0" xmlns="http://www.w3.org/2000/svg"
 width="1300.000000pt" height="1300.000000pt" viewBox="0 0 1300.000000 1300.000000"
 preserveAspectRatio="xMidYMid meet">
<metadata>
Created by potrace 1.15, written by Peter Selinger 2001-2017
</metadata>
<g transform="translate(0.000000,1300.000000) scale(0.100000,-0.100000)"
fill="#000000" stroke="none">
<path d="M9400 12400 l0 -200 -100 0 -100 0 0 -200 0 -200 -200 0 -200 0 0
-100 0 -100 -500 0 -500 0 0 100 0 100 -600 0 -600 0 0 -100 0 -100 -1300 0
-1300 0 0 -100 0 -100 -200 0 -200 0 0 -100 0 -100 -900 0 -900 0 0 100 0 100
-100 0 -100 0 0 100 0 100 -200 0 -200 0 0 200 0 200 -100 0 -100 0 0 100 0
100 -100 0 -100 0 0 -100 0 -100 -100 0 -100 0 0 -500 0 -500 100 0 100 0 0
-200 0 -200 100 0 100 0 0 -200 0 -200 100 0 100 0 0 -100 0 -100 100 0 100 0
0 -100 0 -100 200 0 200 0 0 -100 0 -100 400 0 400 0 0 -200 0 -200 -100 0
-100 0 0 -100 0 -100 -100 0 -100 0 0 -200 0 -200 -100 0 -100 0 0 -100 0
-100 -100 0 -100 0 0 -200 0 -200 -100 0 -100 0 0 -100 0 -100 -100 0 -100 0
0 -200 0 -200 -100 0 -100 0 0 -500 0 -500 -100 0 -100 0 0 -700 0 -700 100 0
100 0 0 -300 0 -300 100 0 100 0 0 -400 0 -400 100 0 100 0 0 -100 0 -100 100
0 100 0 0 -100 0 -100 -100 0 -100 0 0 -100 0 -100 -100 0 -100 0 0 -100 0
-100 -100 0 -100 0 0 -100 0 -100 -100 0 -100 0 0 -100 0 -100 -200 0 -200 0
0 -300 0 -300 100 0 100 0 0 -400 0 -400 -100 0 -100 0 0 -200 0 -200 100 0
100 0 0 -100 0 -100 500 0 500 0 0 100 0 100 100 0 100 0 0 100 0 100 100 0
100 0 0 100 0 100 200 0 200 0 0 100 0 100 100 0 100 0 0 200 0 200 100 0 100
0 0 100 0 100 100 0 100 0 0 100 0 100 100 0 100 0 0 200 0 200 -500 0 -500 0
0 100 0 100 81 0 c126 0 119 -12 119 210 l0 190 200 0 200 0 0 100 0 100 200
0 200 0 0 300 0 300 100 0 100 0 0 100 0 100 100 0 100 0 0 100 0 100 100 0
100 0 0 -200 0 -200 -100 0 -100 0 0 -500 0 -500 100 0 100 0 0 -200 0 -200
100 0 100 0 0 -100 0 -100 100 0 100 0 0 -100 0 -100 -100 0 -100 0 0 -100 0
-100 -100 0 -100 0 0 -100 0 -100 -100 0 -100 0 0 -100 0 -100 -100 0 -100 0
0 -400 0 -400 100 0 100 0 0 -100 0 -100 500 0 500 0 0 100 0 100 200 0 200 0
0 100 0 100 300 0 300 0 0 100 0 100 100 0 100 0 0 200 0 200 -100 0 -100 0 0
200 0 200 200 0 200 0 0 100 0 100 100 0 100 0 0 300 0 300 300 0 300 0 0
-100 0 -100 100 0 100 0 0 -100 0 -100 100 0 100 0 0 -100 0 -100 200 0 200 0
0 -300 0 -300 -100 0 -100 0 0 -400 0 -400 100 0 100 0 0 -100 0 -100 800 0
800 0 0 100 0 100 400 0 400 0 0 100 0 100 200 0 200 0 0 100 0 100 100 0 100
0 0 100 0 100 100 0 100 0 0 100 0 100 100 0 100 0 0 200 0 200 100 0 100 0 0
100 0 100 100 0 100 0 0 200 0 200 -400 0 -400 0 0 100 0 100 -100 0 -100 0 0
100 0 100 100 0 100 0 0 100 0 100 100 0 100 0 0 200 0 200 500 0 500 0 0 100
0 100 100 0 100 0 0 200 0 200 100 0 100 0 0 300 0 300 100 0 100 0 0 200 0
200 100 0 100 0 0 400 0 400 -200 0 -200 0 0 400 0 400 -100 0 -100 0 0 300 0
300 -100 0 -100 0 0 300 0 300 -100 0 -100 0 0 100 0 100 -100 0 -100 0 0 200
0 200 -100 0 -100 0 0 200 0 200 -100 0 -100 0 0 100 0 100 -100 0 -100 0 0
100 0 100 -200 0 -200 0 0 100 0 100 -200 0 -200 0 0 100 0 100 -100 0 -100 0
0 100 0 100 -200 0 -200 0 0 100 0 100 -100 0 -100 0 0 100 0 100 200 0 200 0
0 100 0 100 100 0 100 0 0 100 0 100 100 0 100 0 0 300 0 300 100 0 100 0 0
300 0 300 -100 0 -100 0 0 200 0 200 -100 0 -100 0 0 100 0 100 -100 0 -100 0
0 100 0 100 -200 0 -200 0 0 -200z m200 -800 l0 -200 -100 0 -100 0 0 -100 0
-100 -100 0 -100 0 0 -100 0 -100 -100 0 -100 0 0 -100 0 -100 -500 0 -501 0
3 98 3 97 403 3 404 2 -4 98 -3 97 98 3 97 3 0 99 0 100 100 0 100 0 0 100 0
100 105 0 105 0 -4 88 c-2 48 -1 93 2 100 3 8 32 12 98 12 l94 0 0 -200z
m-8000 -500 l0 -100 -100 0 -100 0 0 100 0 100 100 0 100 0 0 -100z m200 -200
l0 -100 188 0 c169 -1 626 -6 760 -9 l53 -1 -3 -92 -3 -93 -595 0 -595 0 -3
185 c-1 101 0 190 2 197 4 9 32 13 101 13 l95 0 0 -100z m3000 0 l0 -100 -100
0 -100 0 0 -100 0 -100 -200 0 -200 0 0 -100 0 -100 -200 0 -200 0 0 100 0
100 100 0 100 0 0 100 0 100 200 0 200 0 0 100 0 100 200 0 200 0 0 -100z
m1400 0 l0 -100 -400 0 -400 0 0 100 0 100 400 0 400 0 0 -100z m2600 -1400
l0 -100 100 0 100 0 0 -200 0 -200 -100 0 -100 0 0 200 0 200 -100 0 -100 0 0
100 0 100 100 0 100 0 0 -100z m-3000 -200 l0 -100 -100 0 -100 0 0 -100 0
-100 -100 0 -100 0 0 -100 0 -100 -100 0 -100 0 0 -100 0 -100 -100 0 -100 0
0 100 0 100 100 0 100 0 0 200 0 200 100 0 100 0 0 100 0 100 200 0 200 0 0
-100z m1800 0 l0 -100 100 0 100 0 0 -200 0 -200 100 0 100 0 0 -200 0 -200
-100 0 -100 0 0 100 0 100 -100 0 -100 0 0 100 0 100 -100 0 -100 0 0 300 0
300 100 0 100 0 0 -100z m-1000 -1300 l0 -800 -200 0 -200 0 0 500 0 500 100
0 100 0 0 300 0 300 100 0 100 0 0 -800z m3400 500 l0 -100 -100 0 -100 0 0
100 0 100 100 0 100 0 0 -100z m-4202 -202 l3 -98 -101 0 -100 0 0 93 c0 52 3
97 7 101 4 4 48 5 98 4 l90 -3 3 -97z m-1398 -598 l0 -500 -100 0 -100 0 0
-100 0 -100 -100 0 -100 0 0 -100 0 -100 -100 0 -100 0 0 300 0 300 100 0 100
0 0 200 0 200 100 0 100 0 0 100 0 100 -100 0 -100 0 0 100 0 100 200 0 200 0
0 -500z m5000 200 l0 -100 -200 0 -200 0 0 100 0 100 200 0 200 0 0 -100z
m1000 -100 l0 -200 -100 0 -100 0 0 200 0 200 100 0 100 0 0 -200z m-8200
-200 l0 -200 -200 0 -200 0 0 100 0 100 100 0 100 0 0 100 0 100 100 0 100 0
0 -200z m9561 -22 c0 -10 2 -10 6 0 2 6 11 12 19 12 11 0 14 -20 14 -95 l0
-95 -100 0 -100 0 0 95 0 95 80 0 c57 0 80 -4 81 -12z m-3161 -278 l0 -100
-100 0 -100 0 0 100 0 100 100 0 100 0 0 -100z m2600 -102 l0 -198 101 0 100
0 -2 -97 -2 -98 102 -3 101 -3 1 -197 c0 -108 4 -206 9 -217 5 -11 9 -14 9 -6
1 7 7 11 16 8 8 -4 16 -3 19 1 2 4 36 6 75 4 l71 -4 0 -294 0 -294 -100 0
-100 0 0 -100 0 -100 -297 -1 c-164 -1 -309 -5 -323 -9 -24 -8 -24 -8 -2 -9
22 -1 23 -3 20 -86 l-3 -86 -197 -5 -198 -6 0 201 0 201 -100 0 -100 0 0 100
0 100 -95 0 -95 0 -1 88 c-1 48 -5 130 -9 182 l-7 95 -1 -82 -2 -83 -190 0
-190 0 0 398 0 397 195 3 195 4 0 -101 0 -101 200 0 200 0 0 -100 0 -100 205
0 205 0 0 398 0 397 95 0 95 0 0 -197z m-1800 -198 l0 -200 -100 0 -100 0 0
193 c0 107 3 197 7 200 3 4 48 7 100 7 l93 0 0 -200z m-1400 -300 l0 -100
-100 0 -100 0 0 100 0 100 100 0 100 0 0 -100z m379 -142 c-1 -18 -1 -61 0
-96 1 -63 1 -63 29 -60 18 2 26 8 23 18 -2 8 -6 32 -9 52 l-4 36 191 2 191 1
0 -61 0 -60 53 0 c45 0 53 -3 54 -19 2 -26 49 -98 73 -113 19 -12 20 -24 20
-235 l0 -223 -300 0 -300 0 0 -100 0 -100 -200 0 -200 0 0 -97 0 -98 -182 2
c-101 2 -187 3 -192 3 -4 0 -47 38 -94 85 -47 47 -87 85 -89 85 -21 0 -32 37
-34 116 l-2 89 96 3 97 3 0 104 0 105 105 0 105 0 0 95 0 94 98 3 97 3 3 98 3
97 57 -1 c44 -1 51 -3 32 -9 -22 -7 -23 -8 -4 -9 17 -1 22 -9 27 -43 6 -45 35
-91 61 -96 21 -4 21 26 1 75 -11 25 -12 40 -5 47 5 5 10 15 10 21 0 5 -5 3
-10 -5 -8 -13 -10 -13 -10 1 0 9 9 19 20 22 18 5 20 14 20 101 l0 96 86 0 86
0 -3 -32z m-6779 -258 l0 -100 -100 0 -100 0 0 95 0 94 63 4 c34 2 79 4 100 5
l37 2 0 -100z m5800 0 l0 -100 -100 0 -100 0 0 100 0 100 100 0 100 0 0 -100z
m2600 -400 l0 -100 100 0 100 0 0 -200 0 -200 100 0 100 0 0 -200 0 -200 100
0 100 0 0 -100 0 -100 -100 0 -100 0 0 -100 0 -100 -100 0 -100 0 0 100 0 100
-100 0 -100 0 0 200 0 200 -100 0 -100 0 0 300 0 300 -100 0 -100 0 0 100 0
100 200 0 200 0 0 -100z m-8000 -200 l0 -100 100 0 100 0 0 -99 0 -99 400 -7
400 -7 0 -194 0 -194 -200 0 -199 0 -3 -97 -3 -98 -197 -3 -198 -2 0 100 0
100 -401 0 -400 0 3 100 3 100 -105 1 c-58 0 -100 2 -95 5 6 2 9 107 7 294
l-3 289 98 4 c54 1 232 4 396 5 l297 2 0 -100z m10600 -400 l0 -100 -98 0 -97
0 1 98 c1 53 2 98 3 100 1 1 44 2 96 2 l95 0 0 -100z m-9000 -400 l0 -100
-100 0 -100 0 0 100 0 100 100 0 100 0 0 -100z m400 -200 l0 -100 -100 0 -100
0 0 93 c0 52 3 97 7 100 3 4 48 7 100 7 l93 0 0 -100z m8188 92 c18 -12 13
-783 -6 -790 -8 -2 -10 3 -6 15 5 17 5 17 -6 1 -9 -15 -26 -18 -90 -18 l-80 0
0 -100 0 -100 -100 0 -100 0 0 -100 0 -100 -195 0 -195 0 0 100 0 100 -100 0
-100 0 0 294 0 294 195 7 195 7 0 99 0 99 205 0 205 0 0 95 0 94 78 4 c42 1
79 4 82 5 3 1 11 -2 18 -6z m-1192 -292 l-1 -95 -97 -3 -98 -3 0 -99 0 -100
-100 0 -100 0 0 198 0 197 198 0 198 0 0 -95z m-7796 -657 c0 -87 -3 -222 -7
-300 l-6 -143 -194 0 -193 0 0 200 0 200 -200 0 -200 0 0 -90 c0 -86 -1 -90
-22 -91 -22 -1 -22 -1 2 -9 17 -5 -8 -8 -71 -9 -78 -1 -98 2 -103 14 -3 8 -16
15 -28 15 -18 0 -20 -2 -8 -9 8 -6 18 -7 22 -5 4 3 8 0 8 -5 0 -6 -5 -11 -12
-11 -9 0 -9 -3 0 -12 13 -13 17 -32 5 -25 -5 3 -6 -32 -3 -76 l5 -82 203 -3
202 -2 0 -100 0 -100 -197 -2 -198 -3 -3 -97 -3 -97 -97 -3 -97 -3 -3 -197 -2
-198 -100 0 -100 0 0 -100 0 -100 -184 0 c-101 0 -191 -3 -200 -6 -13 -5 -16
-24 -16 -105 l0 -99 -100 0 -100 0 0 -195 0 -195 -100 0 -100 0 0 200 0 200
100 0 100 0 0 100 0 100 100 0 100 0 0 100 0 100 100 0 99 0 3 98 3 97 95 0
95 0 5 100 c3 70 9 100 18 101 6 1 50 2 97 3 l85 1 0 100 0 100 100 0 100 0 0
100 0 100 -98 0 -99 0 1 38 c0 20 -1 65 -2 100 l-2 62 -94 0 c-76 0 -95 3
-100 16 -3 9 -6 54 -6 100 l0 84 -97 0 -98 0 5 86 c3 52 1 89 -5 92 -5 4 307
9 695 12 388 3 749 6 803 8 l97 2 0 -157z m6400 57 l0 -100 -100 0 -100 0 0
100 0 100 100 0 100 0 0 -100z m-1000 -400 l0 -100 -100 0 -100 0 0 100 0 100
100 0 100 0 0 -100z m-3000 -200 l0 -100 -100 0 -100 0 0 100 0 100 100 0 100
0 0 -100z m2000 0 l0 -100 -100 0 -100 0 0 100 0 100 100 0 100 0 0 -100z
m-1000 -200 l0 -100 -100 0 -100 0 0 100 0 100 100 0 100 0 0 -100z m-2000
-200 l0 -100 100 0 100 0 0 -100 0 -100 100 0 100 0 0 -200 0 -200 -100 0
-100 0 0 100 0 100 -100 0 -100 0 0 100 0 100 -100 0 -100 0 0 193 c0 107 3
197 7 200 3 4 48 7 100 7 l93 0 0 -100z m5400 -400 l0 -100 -80 -1 c-44 -1
-84 -3 -90 -4 -5 -1 -14 -3 -20 -4 -6 0 -10 -42 -10 -101 l0 -100 -97 0 -98 0
0 -92 0 -93 -102 -3 -103 -3 0 101 0 100 100 0 100 0 0 100 0 100 100 0 100 0
0 100 0 100 100 0 100 0 0 -100z m-7800 -200 l0 -100 -100 0 -100 0 0 100 0
100 100 0 100 0 0 -100z m8600 -200 l0 -99 98 -3 97 -3 3 -97 3 -98 -101 0
-100 0 0 -100 0 -100 -100 0 -100 0 0 -100 0 -100 -100 0 -100 0 0 -100 0
-100 -200 0 -200 0 0 -100 0 -100 -100 0 -100 0 0 -100 0 -100 -200 0 -200 0
0 100 0 100 100 0 100 0 0 100 0 100 200 0 200 0 0 100 0 100 100 0 100 0 0
100 0 100 100 0 100 0 0 100 0 100 100 0 100 0 0 200 0 200 100 0 100 0 0
-100z m-8002 -202 l3 -98 -101 0 -100 0 0 -200 0 -200 -100 0 -100 0 0 -100 0
-100 -200 0 -200 0 0 -100 0 -100 -100 0 -100 0 0 -100 0 -100 -400 0 -400 0
0 394 c0 217 3 396 8 398 4 2 49 2 100 0 l92 -3 0 -295 0 -294 300 0 300 0 0
100 0 100 100 0 100 0 0 100 0 100 100 0 100 0 0 100 0 100 100 0 100 0 0 100
0 100 101 0 100 0 -1 93 c-1 50 -1 96 -1 100 1 4 45 6 99 5 l97 -3 3 -97z
m2802 -398 l0 -300 -100 0 -100 0 0 300 0 300 100 0 100 0 0 -300z"/>
</g>
</svg>
